<svg width="61" height="9" viewBox="0 0 61 9" fill="none" xmlns="http://www.w3.org/2000/svg">
<path d="M-1.66893e-06 8.84659V0.119315H2.94886C3.63068 0.119315 4.19034 0.235792 4.62784 0.468747C5.06534 0.69886 5.3892 1.01562 5.59943 1.41903C5.80966 1.82244 5.91477 2.28125 5.91477 2.79545C5.91477 3.30966 5.80966 3.76562 5.59943 4.16335C5.3892 4.56108 5.06676 4.87358 4.6321 5.10085C4.19744 5.32528 3.64204 5.4375 2.96591 5.4375H0.579544V4.48295H2.93182C3.39773 4.48295 3.77273 4.41477 4.05682 4.27841C4.34375 4.14204 4.55113 3.94886 4.67898 3.69886C4.80966 3.44602 4.875 3.14488 4.875 2.79545C4.875 2.44602 4.80966 2.14062 4.67898 1.87926C4.54829 1.61789 4.33949 1.41619 4.05256 1.27414C3.76562 1.12926 3.38636 1.05682 2.91477 1.05682H1.05682V8.84659H-1.66893e-06ZM4.10795 4.92613L6.25568 8.84659H5.02841L2.91477 4.92613H4.10795ZM7.67578 8.84659V0.119315H12.9428V1.05682H8.7326V4.00568H12.6701V4.94318H8.7326V7.90909H13.011V8.84659H7.67578ZM15.2056 0.119315L17.7965 7.46591H17.8988L20.4897 0.119315H21.5977L18.3931 8.84659H17.3022L14.0977 0.119315H15.2056ZM22.957 8.84659V0.119315H28.2241V1.05682H24.0138V4.00568H27.9513V4.94318H24.0138V7.90909H28.2923V8.84659H22.957ZM30.1289 8.84659V0.119315H33.0778C33.7596 0.119315 34.3192 0.235792 34.7567 0.468747C35.1942 0.69886 35.5181 1.01562 35.7283 1.41903C35.9386 1.82244 36.0437 2.28125 36.0437 2.79545C36.0437 3.30966 35.9386 3.76562 35.7283 4.16335C35.5181 4.56108 35.1957 4.87358 34.761 5.10085C34.3263 5.32528 33.771 5.4375 33.0948 5.4375H30.7085V4.48295H33.0607C33.5266 4.48295 33.9016 4.41477 34.1857 4.27841C34.4727 4.14204 34.68 3.94886 34.8079 3.69886C34.9386 3.44602 35.0039 3.14488 35.0039 2.79545C35.0039 2.44602 34.9386 2.14062 34.8079 1.87926C34.6772 1.61789 34.4684 1.41619 34.1815 1.27414C33.8945 1.12926 33.5153 1.05682 33.0437 1.05682H31.1857V8.84659H30.1289ZM34.2369 4.92613L36.3846 8.84659H35.1573L33.0437 4.92613H34.2369ZM42.5774 2.30113C42.5263 1.86932 42.3189 1.53409 41.9553 1.29545C41.5916 1.05682 41.1456 0.937497 40.6172 0.937497C40.2308 0.937497 39.8928 0.999997 39.603 1.125C39.316 1.25 39.0916 1.42187 38.9297 1.64062C38.7706 1.85937 38.691 2.10795 38.691 2.38636C38.691 2.61931 38.7464 2.8196 38.8572 2.98721C38.9709 3.15199 39.1158 3.28977 39.2919 3.40057C39.468 3.50852 39.6527 3.59801 39.8459 3.66903C40.0391 3.73721 40.2166 3.79261 40.3785 3.83522L41.2649 4.07386C41.4922 4.13352 41.745 4.21591 42.0234 4.32102C42.3047 4.42613 42.5732 4.5696 42.8288 4.75142C43.0874 4.93039 43.3004 5.16051 43.468 5.44176C43.6357 5.72301 43.7195 6.06818 43.7195 6.47727C43.7195 6.94886 43.5959 7.375 43.3487 7.75568C43.1044 8.13636 42.7464 8.43892 42.2749 8.66335C41.8061 8.88778 41.2365 9 40.566 9C39.941 9 39.3999 8.89914 38.9425 8.69744C38.4879 8.49574 38.13 8.21449 37.8686 7.85369C37.6101 7.49289 37.4638 7.07386 37.4297 6.59659H38.5206C38.549 6.92613 38.6598 7.19886 38.853 7.41477C39.049 7.62784 39.2962 7.78693 39.5945 7.89204C39.8956 7.99432 40.2195 8.04545 40.566 8.04545C40.9695 8.04545 41.3317 7.98011 41.6527 7.84943C41.9737 7.71591 42.228 7.53125 42.4155 7.29545C42.603 7.05682 42.6967 6.77841 42.6967 6.46022C42.6967 6.17045 42.6158 5.93466 42.4538 5.75284C42.2919 5.57102 42.0788 5.42329 41.8146 5.30966C41.5504 5.19602 41.2649 5.09659 40.9581 5.01136L39.8842 4.70454C39.2024 4.50852 38.6626 4.22869 38.2649 3.86505C37.8672 3.50142 37.6683 3.02557 37.6683 2.4375C37.6683 1.94886 37.8004 1.52272 38.0646 1.15909C38.3317 0.792611 38.6896 0.50852 39.1385 0.306815C39.5902 0.10227 40.0945 -3.09944e-06 40.6513 -3.09944e-06C41.2138 -3.09944e-06 41.7138 0.100849 42.1513 0.302554C42.5888 0.501417 42.9354 0.774144 43.191 1.12074C43.4496 1.46733 43.5859 1.86079 43.6001 2.30113H42.5774ZM52.8207 4.48295C52.8207 5.40341 52.6545 6.19886 52.3221 6.86932C51.9897 7.53977 51.5337 8.05682 50.9542 8.42045C50.3746 8.78409 49.7127 8.96591 48.9684 8.96591C48.2241 8.96591 47.5621 8.78409 46.9826 8.42045C46.4031 8.05682 45.9471 7.53977 45.6147 6.86932C45.2823 6.19886 45.1161 5.40341 45.1161 4.48295C45.1161 3.5625 45.2823 2.76704 45.6147 2.09659C45.9471 1.42613 46.4031 0.909088 46.9826 0.545452C47.5621 0.181815 48.2241 -3.09944e-06 48.9684 -3.09944e-06C49.7127 -3.09944e-06 50.3746 0.181815 50.9542 0.545452C51.5337 0.909088 51.9897 1.42613 52.3221 2.09659C52.6545 2.76704 52.8207 3.5625 52.8207 4.48295ZM51.7979 4.48295C51.7979 3.72727 51.6715 3.08949 51.4187 2.5696C51.1687 2.04971 50.8292 1.65625 50.4002 1.3892C49.9741 1.12216 49.4968 0.988633 48.9684 0.988633C48.44 0.988633 47.9613 1.12216 47.5323 1.3892C47.1062 1.65625 46.7667 2.04971 46.5138 2.5696C46.2638 3.08949 46.1388 3.72727 46.1388 4.48295C46.1388 5.23863 46.2638 5.87642 46.5138 6.3963C46.7667 6.91619 47.1062 7.30966 47.5323 7.5767C47.9613 7.84375 48.44 7.97727 48.9684 7.97727C49.4968 7.97727 49.9741 7.84375 50.4002 7.5767C50.8292 7.30966 51.1687 6.91619 51.4187 6.3963C51.6715 5.87642 51.7979 5.23863 51.7979 4.48295ZM54.5977 8.84659V0.119315H57.5465C58.2283 0.119315 58.788 0.235792 59.2255 0.468747C59.663 0.69886 59.9869 1.01562 60.1971 1.41903C60.4073 1.82244 60.5124 2.28125 60.5124 2.79545C60.5124 3.30966 60.4073 3.76562 60.1971 4.16335C59.9869 4.56108 59.6644 4.87358 59.2298 5.10085C58.7951 5.32528 58.2397 5.4375 57.5636 5.4375H55.1772V4.48295H57.5295C57.9954 4.48295 58.3704 4.41477 58.6545 4.27841C58.9414 4.14204 59.1488 3.94886 59.2766 3.69886C59.4073 3.44602 59.4727 3.14488 59.4727 2.79545C59.4727 2.44602 59.4073 2.14062 59.2766 1.87926C59.146 1.61789 58.9371 1.41619 58.6502 1.27414C58.3633 1.12926 57.984 1.05682 57.5124 1.05682H55.6545V8.84659H54.5977ZM58.7056 4.92613L60.8533 8.84659H59.6261L57.5124 4.92613H58.7056Z" fill="white"/>
</svg>
